# xmcd
#
# Track frame offsets: 
#        150
#        71049
#        104605
#        161186
#        211118
#
# Disc length: 3579 seconds
#
# Revision: 2
# Processed by: cddbd v1.5.2PL0 Copyright (c) Steve Scherf et al.
# Submitted via: ExactAudioCopy v1.3
#
DISCID=460df905
DTITLE=Alexander Vinogradov, Royal Liverpool Philharmonic Choir, Hudde
DTITLE=rsfield Choral Society, RLPO, Vasily Petrenko - Shostakovich - 
DTITLE=Complete Symphonies - Petrenko
DYEAR=2013
DGENRE=Classical
TTITLE0=Symphony No. 13 in B flat minor, "Babi Yar", Op. 113 - 1. Babi
TTITLE0=Yar - Adagio
TTITLE1=Symphony No. 13 in B flat minor, "Babi Yar", Op. 113 - 2. Humo
TTITLE1=r - Allegretto
TTITLE2=Symphony No. 13 in B flat minor, "Babi Yar", Op. 113 - 3. In T
TTITLE2=he Store: Adagio -
TTITLE3=Symphony No. 13 in B flat minor, "Babi Yar", Op. 113 - 4. Fear
TTITLE3=s: Largo - 
TTITLE4=Symphony No. 13 in B flat minor, "Babi Yar", Op. 113 - 5. A Ca
TTITLE4=reer: Allegretto
EXTD=
EXTT0=
EXTT1=
EXTT2=
EXTT3=
EXTT4=
PLAYORDER=
